<svg height="39px" viewBox="0 -27 429.104 429" width="50px" xmlns="http://www.w3.org/2000/svg"><path d="m161.753906 221.132812c-1.714844 4.761719-2.753906 9.742188-3.097656 14.792969l33.601562 16.238281-26.195312-40.457031c-1.730469 3-3.171875 6.15625-4.308594 9.425781zm0 0"/><path d="m0 159.347656 113.832031 54.914063c.152344-.601563.390625-1.175781.550781-1.777344.6875-2.511719 1.457032-4.992187 2.328126-7.449219.335937-.96875.671874-1.933594 1.050781-2.886718.476562-1.257813 1-2.488282 1.527343-3.71875l-98.394531-86.890626c-8.847656 15.046876-15.863281 31.097657-20.894531 47.808594zm0 0"/><path d="m206.550781 184.46875c-.878906.128906-1.75.277344-2.628906.445312-.664063.128907-1.335937.195313-1.992187.347657-.128907 0-.242188.070312-.363282.09375-9.34375 2.105469-17.925781 6.75-24.796875 13.425781l29.78125 45.941406zm0 0"/><path d="m152.59375 156.410156c1.597656-1.175781 3.117188-2.398437 4.742188-3.4375 1.023437-.679687 2.097656-1.257812 3.144531-1.898437 1.496093-.917969 2.976562-1.863281 4.519531-2.695313.632812-.34375 1.289062-.632812 1.929688-.957031l-40.859376-129.226563c-17.074218 7.34375-33.164062 16.800782-47.886718 28.152344l72.257812 111.65625c.695313-.609375 1.4375-1.054687 2.152344-1.59375zm0 0"/><path d="m206.550781 136.210938v-33.214844c-18.640625-3.785156-32.039062-20.175782-32.039062-39.199219s13.398437-35.414063 32.039062-39.199219v-24.5468748c-22.351562.7695308-44.460937 4.8789068-65.597656 12.1914068l40.800781 128.882812c8.03125-2.648438 16.363282-4.296875 24.796875-4.914062zm0 0"/><path d="m254.550781 63.796875c-.023437 19-13.386719 35.371094-32 39.199219v33.222656c8.4375.617188 16.765625 2.265625 24.800781 4.914062l40.800782-128.890624c-21.136719-7.3125-43.246094-11.421876-65.601563-12.1914068v24.5468748c18.613281 3.824219 31.976563 20.199219 32 39.199219zm0 0"/><path d="m264.089844 148.371094c1.597656.890625 3.199218 1.890625 4.796875 2.863281.945312.585937 1.921875 1.113281 2.847656 1.730469 1.761719 1.160156 3.449219 2.445312 5.144531 3.726562.585938.441406 1.199219.800782 1.769532 1.28125l72.253906-111.648437c-14.714844-11.34375-30.796875-20.796875-47.871094-28.128907l-40.855469 129.226563c.632813.316406 1.289063.613281 1.914063.949219zm0 0"/><path d="m238.550781 63.796875c0 13.253906-10.742187 24-24 24-13.253906 0-24-10.746094-24-24s10.746094-24 24-24c13.257813 0 24 10.746094 24 24zm0 0"/><path d="m65.753906 56.597656c-13.730468 12.199219-25.890625 26.054688-36.210937 41.246094l97.441406 86.03125c3.402344-5.277344 7.273437-10.238281 11.566406-14.824219zm0 0"/><path d="m297.40625 210.660156c-.253906-.71875-.535156-1.425781-.796875-2.136718-1.277344-3.390626-2.765625-6.695313-4.457031-9.894532-4.546875-8.433594-10.367188-16.117187-17.25-22.785156-7.429688-7.09375-16.078125-12.785156-25.535156-16.800781-.328126-.136719-.644532-.296875-.953126-.480469-10.246093-4.273438-21.214843-6.570312-32.316406-6.765625h-1.546875c-.230469 0-.496093 0-.710937 0h-.800782c-11.101562.179687-22.074218 2.464844-32.328124 6.726563-.300782.179687-.613282.335937-.933594.472656-9.453125 4.015625-18.101563 9.707031-25.53125 16.800781-9.933594 9.253906-17.511719 20.753906-22.09375 33.535156-.25.671875-.503906 1.335938-.726563 2.015625-1.082031 3.144532-1.984375 6.351563-2.699219 9.601563 0 .160156-.054687.320312-.085937.488281l14.816406 7.199219c.671875-4.375 1.761719-8.675781 3.253907-12.839844 3.011718-8.664063 7.683593-16.65625 13.761718-23.527344 6.230469-7.113281 13.804688-12.917969 22.289063-17.089843 9.800781-4.796876 20.558593-7.320313 31.46875-7.382813h.441406c10.964844.058594 21.78125 2.570313 31.648437 7.351563 21.03125 10.339843 35.695313 30.289062 39.289063 53.449218l14.832031-7.160156c0-.21875-.074218-.425781-.121094-.632812-.761718-3.4375-1.734374-6.828126-2.914062-10.144532zm0 0"/><path d="m312.007812 204.074219c1.039063 2.816406 1.953126 5.675781 2.746094 8.578125.140625.542968.375 1.0625.511719 1.601562l113.839844-54.914062c-5.410157-17.914063-13.074219-35.066406-22.808594-51.046875l-97.304687 88.453125c.683593 1.472656 1.328124 2.964844 1.9375 4.472656.421874.976562.726562 1.898438 1.078124 2.855469zm0 0"/><path d="m262.910156 211.835938-26.109375 40.328124 33.597657-16.238281c-.628907-8.496093-3.191407-16.734375-7.488282-24.089843zm0 0"/><path d="m363.351562 56.597656-72.800781 112.4375c3.84375 4.144532 7.339844 8.597656 10.457031 13.3125l96.425782-87.609375c-9.867188-13.972656-21.304688-26.769531-34.082032-38.140625zm0 0"/><path d="m243.824219 192.363281c-1.527344-.941406-2.9375-2.023437-4.566407-2.832031-.890624-.429688-1.816406-.757812-2.722656-1.144531-1.070312-.453125-2.128906-.964844-3.199218-1.351563-.527344-.183594-1.070313-.296875-1.601563-.464844-1.503906-.476562-3.007813-.964843-4.542969-1.316406-.449218-.105468-.910156-.144531-1.359375-.234375-1.078125-.222656-2.167969-.398437-3.257812-.550781v60.253906l29.753906-45.933594c-1.230469-1.136718-2.320313-2.402343-3.65625-3.425781-1.511719-1.167969-3.238281-1.96875-4.847656-3zm0 0"/><path d="m287.871094 302.570312-3.960938-.65625c-21.804687-3.585937-41.933594-13.941406-57.535156-29.597656l-6.167969-6.160156c-2.285156-2.285156-5.722656-2.96875-8.707031-1.738281-2.988281 1.234375-4.941406 4.144531-4.949219 7.378906.039063 27.703125 9.464844 54.578125 26.746094 76.230469l7.015625 8.800781c1.753906 2.332031 4.636719 3.527344 7.523438 3.113281 2.890624-.410156 5.324218-2.363281 6.355468-5.089844 1.03125-2.730468.496094-5.804687-1.398437-8.023437l-7.039063-8.792969c-10.664062-13.363281-17.949218-29.097656-21.242187-45.871094 16.367187 13.304688 35.925781 22.101563 56.734375 25.527344l3.953125.664063c4.359375.730469 8.484375-2.210938 9.210937-6.570313.730469-4.359375-2.210937-8.484375-6.570312-9.214844zm0 0"/><path d="m276.230469 362.117188c-.777344-.707032-1.671875-1.273438-2.636719-1.679688-1.460938-.640625-3.082031-.808594-4.640625-.480469-.503906.085938-.988281.246094-1.441406.480469-.511719.175781-1 .417969-1.449219.71875l-1.191406.960938c-.707032.777343-1.273438 1.667968-1.679688 2.640624-.410156.960938-.625 1.992188-.640625 3.039063.027344 2.117187.855469 4.148437 2.320313 5.679687l1.191406.960938c.449219.300781.9375.542969 1.449219.71875.453125.230469.9375.394531 1.441406.480469.527344.089843 1.0625.140625 1.597656.160156 1.050781.027344 2.09375-.191406 3.042969-.640625.964844-.40625 1.859375-.976562 2.636719-1.679688 1.460937-1.535156 2.289062-3.5625 2.320312-5.679687-.011719-1.046875-.230469-2.078125-.640625-3.039063-.402344-.972656-.972656-1.863281-1.679687-2.640624zm0 0"/><path d="m322.953125 305.15625c-.410156-.316406-.871094-.558594-1.359375-.71875-.480469-.246094-.996094-.40625-1.53125-.480469-1.023438-.242187-2.085938-.242187-3.109375 0-.503906.085938-.988281.246094-1.441406.480469-.511719.175781-1 .417969-1.449219.71875l-1.191406.960938c-1.464844 1.53125-2.292969 3.558593-2.320313 5.679687-.027343 1.046875.191407 2.089844.640625 3.039063.386719.980468.957032 1.875 1.679688 2.640624l1.191406.960938c.449219.300781.9375.542969 1.449219.71875.453125.230469.9375.394531 1.441406.480469.527344.089843 1.0625.140625 1.597656.160156.507813-.015625 1.015625-.066406 1.511719-.160156.535156-.074219 1.050781-.238281 1.53125-.480469.488281-.160156.949219-.40625 1.359375-.71875.472656-.320312.878906-.640625 1.277344-.960938.726562-.765624 1.296875-1.660156 1.679687-2.640624.410156-.960938.628906-1.996094.640625-3.039063-.03125-2.117187-.859375-4.148437-2.320312-5.679687-.398438-.320313-.804688-.640626-1.277344-.960938zm0 0"/></svg>