<svg height="39px" viewBox="0 0 60 60" width="50px" xmlns="http://www.w3.org/2000/svg"><g id="021---Samurai-Helmet" fill="none"><g id="Icons" transform="translate(1 1)"><path id="Shape" d="m13 34c-3.38684735-4.4118437-7.64079597-8.0838522-12.5-10.79-.41381956-.2489953-.59055569-.7581637-.42-1.21l2.8-5.34c.15990231-.4657585.63508554-.7457772 1.12-.66 5.08 1.13 9 3.87 9.94 9 .464907 3.0309405.1411712 6.1305388-.94 9z" fill="#ff9801"/><path id="Shape" d="m13.94 25c-.94-5.1-4.86-7.84-9.94-9-.43550609-.0855391-.875284.1262058-1.08.52 6.94 2.28 9.32 7.82 7.86 14.75.7968248.8622784 1.5383054 1.7740992 2.22 2.73 1.0811712-2.8694612 1.404907-5.9690595.94-9z" fill="#f57c00"/><path id="Shape" d="m7.11 49.07c-1.29 4-2.06 6.41-2.66 8.27-.10560432.2996822-.34734482.5313415-.65125112.6240921s-.63380453.0355526-.88874888-.1540921l-2.51-1.81c-.39344855-.2965527-.51227014-.8354935-.28-1.27l4.2-7.8z" fill="#f44335"/><path id="Shape" d="m4.32 46.94c3.68 2.84 3.73 2.85 0 0z" fill="#f44335"/><path id="Shape" d="m10.12 41.37-3 7.7-2.79-2.14-3.93-3c-.40273163-.305366-.51430381-.8632269-.26-1.3l4.33-5.38z" fill="#ff9801"/><path id="Shape" d="m4.46 37.25-1.11 1.38 3.77 2.74-2.32 5.93 2.31 1.77 3.01-7.7z" fill="#f57c00"/><path id="Shape" d="m4.32 46.94c3.68 2.84 3.73 2.85 0 0z" fill="#f44335"/><path id="Shape" d="m13 34-2.88 7.36-9.71-7.14c-.42788409-.3126673-.53754671-.9048455-.25-1.35l4.9-6.67c3.0271243 2.1820431 5.7044567 4.8121681 7.94 7.8z" fill="#ff9801"/><path id="Shape" d="m5.06 26.2-1.06 1.48c2.25953642 1.8441136 4.27567239 3.9677768 6 6.32l-2.21 5.66 2.33 1.71 2.88-7.37c-2.236363-2.9871153-4.9135776-5.6171246-7.94-7.8z" fill="#f57c00"/><path id="Shape" d="m57.5 23.21c-4.8590415 2.7063803-9.1129464 6.378351-12.5 10.79-1.0811712-2.8694612-1.404907-5.9690595-.94-9 1-5.11 4.86-7.85 9.94-9 .4635593-.096161.931029.1459215 1.12.58l2.8 5.42c.1705557.4518363-.0061804.9610047-.42 1.21z" fill="#ff9801"/><path id="Shape" d="m57.92 22-2.8-5.34c-.1599023-.4657585-.6350855-.7457772-1.12-.66-.68.15-1.32.33-1.92.52.28.56-1-2 2.84 5.4.1993978.4657528.0189699 1.0070365-.42 1.26-3.8162274 2.1732374-7.2820416 4.910826-10.28 8.12.1860436.9197383.4469112 1.8227414.78 2.7 3.3858319-4.4154564 7.6398511-8.0909289 12.5-10.8.408983-.2480684.5850198-.7510306.42-1.2z" fill="#f57c00"/><path id="Shape" d="m57.6 56-2.51 1.8c-.2549444.1896447-.5848426.2468427-.8887489.1540921s-.5456468-.3244099-.6512511-.6240921l-2.66-8.27 2.79-2.13 4.2 7.8c.2322701.4345065.1134486.9734473-.28 1.27z" fill="#f44335"/><path id="Shape" d="" fill="#f44335"/><path id="Shape" d="m57.61 43.93-3.93 3-2.78 2.14-3-7.7 5.66-4.12 4.33 5.38c.2500537.4416055.1296784 1.0004907-.28 1.3z" fill="#ff9801"/><path id="Shape" d="m57.87 42.63-4.33-5.38-1.89 1.38 3.22 4c.2543038.4367731.1427316.994634-.26 1.3l-3.93 3-.47.36.69 1.78 2.78-2.14 3.93-3c.4027316-.305366.5143038-.8632269.26-1.3z" fill="#f57c00"/><path id="Shape" d="" fill="#f44335"/><path id="Shape" d="m57.59 34.22-9.71 7.15-2.88-7.37c2.235585-2.9906665 4.9128386-5.6240859 7.94-7.81l4.9 6.67c.2940242.4471924.183838 1.0466058-.25 1.36z" fill="#ff9801"/><path id="Shape" d="m57.84 32.87-4.9-6.67c-.6.45-1.23.94-1.87 1.46l3.81 5.19c.2875467.4451545.1778841 1.0373327-.25 1.35l-7.38 5.44.67 1.71 9.71-7.15c.4026948-.3227333.4936675-.8988937.21-1.33z" fill="#f57c00"/><path id="Shape" d="m52.14 52.94c-2.72-4.24-12-7.36-23.14-7.36s-20.42 3.12-23.14 7.36c1.64-5.07.2-1.19 7.14-18.94 1.0811712-2.8694612 1.404907-5.9690595.94-9l13 6.53c1.337754.6226945 2.882246.6226945 4.22 0l12.9-6.53c-.464907 3.0309405-.1411712 6.1305388.94 9 6.92 17.7 5.56 14 7.14 18.94z" fill="#91562d"/><path id="Shape" d="m45 34c-1.0811712-2.8694612-1.404907-5.9690595-.94-9l-3.21 1.63c-.1196439 2.5091916.271598 5.0165415 1.15 7.37 6.93 17.71 5.91 15.11 6 15.47 1.635619.7990556 3.0502815 1.9870974 4.12 3.46-1.63-5.09-.29-1.46-7.12-18.93z" fill="#6d4122"/><path id="Shape" d="m43.35 6.55c-2.8378947 1.59572608-5.8603438 2.83828847-9 3.7-.9548339-2.07197051-3.0711414-3.35757785-5.35-3.25-2.2517509-.10742102-4.3483761 1.14582487-5.32 3.18-3.1255002-.88960793-6.1436529-2.12034352-9-3.67 3.6143024-4.1430838 8.8460863-6.51740479 14.3441102-6.50973402 5.4980239.00767076 10.7231622 2.39658111 14.3258898 6.54973402z" fill="#f44335"/><path id="Shape" d="m27.5.08c4.9681885.38045195 9.5857381 2.70539715 12.85 6.47-2.0678469 1.14958319-4.2288127 2.12302135-6.46 2.91.1745318.25040489.3283739.51461206.46.79 3.1396562-.86171153 6.1621053-2.10427392 9-3.7-3.9457492-4.56574795-9.8362895-6.97027766-15.85-6.47z" fill="#c81e1e"/><path id="Shape" d="m48 18.62c-2.0803088 1.5450967-3.4901357 3.8280143-3.94 6.38l-12.87 6.54c-1.337754.6226945-2.882246.6226945-4.22 0l-13.03-6.54c-.4498643-2.5519857-1.8596912-4.8349033-3.94-6.38l18.36 6.28c.4151462.1402199.8648538.1402199 1.28 0z" fill="#c81e1e"/><path id="Shape" d="m48 18.62-18.36 6.28c-.4151462.1402199-.8648538.1402199-1.28 0l-18.36-6.28c.0539546-3.0113603.8252908-5.9664353 2.25-8.62 3.2105888 2.7744634 7.0993663 4.6481158 11.27 5.43.8672848 2.2459299 3.0751449 3.6842621 5.48 3.57 2.4031563.1189328 4.6119167-1.3159553 5.48-3.56 4.1523017-.8071286 8.0227211-2.6820245 11.23-5.44 1.4364749 2.6509319 2.2214338 5.6056678 2.29 8.62z" fill="#f44335"/><path id="Shape" d="m45.71 10c-.6935336.6121452-1.4249856 1.179939-2.19 1.7.9273383 2.2200636 1.4293776 4.5945736 1.48 7l-17.5 6c1 .34 1.41.53 2.14.29l18.36-6.37c-.0685662-3.0143322-.8535251-5.9690681-2.29-8.62z" fill="#c81e1e"/><path id="Shape" d="m23.52 15.47c-8.09-1.62-13.43-6.37-15.43-11-.20035521-.42540334-.07726411-.93292796.29571457-1.21927934.37297869-.28635138.89507458-.27416386 1.25428543.02927934 4.1945097 3.17760519 8.94121 5.55095533 14 7-.7426527 1.6420314-.7859676 3.5153993-.12 5.19z" fill="#ffe0b2"/><path id="Shape" d="m29 19c-2.3953135.1207083-4.5989539-1.3054137-5.47-3.54-1.53-3.67.55-8.46 5.47-8.46 7.93 0 7.93 12 0 12z" fill="#ff9801"/><path id="Shape" d="m34.35 10.25c-1.2392291-2.54649078-4.1245686-3.83962834-6.85-3.07 5.93 1.32 6 10.33 0 11.65 5.5 1.23 8.96-4.04 6.85-8.58z" fill="#f57c00"/><path id="Shape" d="m49.9 4.43c-2.13 4.68-7.57 9.39-15.42 11 .6679843-1.678466.6210207-3.5570091-.13-5.2 5.079957-1.39423258 9.8366397-3.77257393 14-7 .3601301-.31094318.8894777-.32508729 1.2656988-.03381934.3762211.29126796.4951232.80728277.2843012 1.23381934z" fill="#ffe0b2"/></g><g id="Layer_5" fill="#000" transform="translate(-1)"><path id="Shape" d="m1.82 36 3.23 2.38-3.7 4.62c-.59662472.8747395-.40809582 2.0629099.43 2.71l3.22 2.51-3.76 7.05c-.4661319.8761721-.21924156 1.9616383.58 2.55l2.49 1.79c.51844865.3815862 1.18887662.4902966 1.80133935.2920886.61246272-.198208 1.09208038-.6791015 1.28866065-1.2920886l1.36-4.23c2.64-4 12-6.83 22.24-6.83s19.6 2.87 22.24 6.83l1.37 4.26c.2107966.5944422.6896446 1.0546221 1.2919951 1.2416264.6023505.1870042 1.2576204.0789197 1.7680049-.2916264l2.52-1.81c.7957254-.5912614 1.0382421-1.6762046.57-2.55l-3.8-7 3.26-2.5c.7965035-.6126271 1.0147813-1.7211354.51-2.59l-3.73-4.73 3.17-2.41c.8790678-.6349541 1.0919845-1.8547895.48-2.75l-4.31-5.87c1.180462-.8278533 2.402021-1.5954997 3.66-2.3.9094612-.520621 1.2628532-1.6549656.81-2.6l-2.81-5.3c-.3882095-.8563874-1.3205384-1.326714-2.24-1.13-1.7135896.3636341-3.364521.9768372-4.9 1.82-.2503662-2.3263102-.9069894-4.590645-1.94-6.69 1.6164038-1.51897104 2.9296655-3.33106863 3.87-5.34.3998562-.85492673.14762-1.87302692-.6051087-2.44239865-.7527287-.56937172-1.8010471-.53502431-2.5148913.08239865-1.3054798 1.0420153-2.6896086 1.98148437-4.14 2.81-3.7778997-3.99705978-9.0350897-6.26195884-14.535-6.26195884s-10.7571003 2.26489906-14.535 6.26195884c-1.4799957-.81258908-2.88838-1.74928173-4.21-2.8-.7174055-.59991475-1.7547598-.62259361-2.49769817-.05460521-.74293842.56798841-.9930889 1.57498542-.60230183 2.42460521.9175122 2.03172168 2.2256726 3.86314631 3.85 5.39-1.010241 2.0806301-1.6530464 4.3202995-1.9 6.62-1.535479-.8431628-3.18641037-1.4563659-4.9-1.82-.90624662-.1762564-1.81537699.290706-2.2 1.13l-2.84 5.37c-.40478502.9342076-.04315319 2.0234083.84 2.53 1.25521973.7145523 2.47344664 1.492215 3.65 2.33l-4.33 5.91c-.56231833.8861502-.34402053 2.0562264.5 2.68zm1.18 8.14 3.63-4.52 4.27 3.1-2.24 5.74-2.66-2.04zm2.49 13.86-2.49-1.79 3.65-6.76 1.29 1zm53.51-1.81-2.5 1.81-2.44-7.6 1.29-1zm-3-9.76-2.65 2-2.25-5.74 4.27-3.1 3.63 4.55zm-4 4.07c-9.63-6.55-32.32-6.56-42 0 0-.13 1.6-4.1 5.91-15.13.9181125-2.4384354 1.336407-5.0366223 1.23-7.64l11.39 5.72c1.612602.7553269 3.477398.7553269 5.09 0l11.2-5.69c-.1091826 2.6002825.3092222 5.1957531 1.23 7.63 6.46 16.45 5.88 14.96 5.95 15.11zm-6.81-25.18-12.42 6.31c-1.0628855.490125-2.2871145.490125-3.35 0l-12.61-6.31c-.2654816-1.242329-.7569753-2.4253035-1.45-3.49 15.96 5.46 14.93 5.17 15.64 5.17s-.3.27 15.64-5.18c-.6947599 1.0674107-1.1863426 2.2539897-1.45 3.5zm13.81 9.1-8.65 6.37-2.21-5.63c1.9028719-2.4636443 4.1219566-4.6659178 6.6-6.55zm-2.8-16.42c1.23-.53 1.22-.55 0 .07l2.8 5.26c-4.4099386 2.4677875-8.3475189 5.6977545-11.63 9.54-1.88-7.42.75-13.05 8.83-14.87zm-5.2-13c-2.11 4.64-7.06 8.4-13.12 10.07.1584202-1.059488.0867962-2.1406683-.21-3.17 4.8275802-1.4662678 9.3455503-3.80490194 13.33-6.9zm-7.29 2.3c-2.1952601 1.14021263-4.4960578 2.06455058-6.87 2.76-1.2641528-1.98578052-3.4877356-3.15087695-5.84-3.06-2.3272457-.09345355-4.5314458 1.04664992-5.8 3-2.3609103-.71934616-4.6559463-1.63936792-6.86-2.75 3.3657797-3.36732166 7.9343751-5.25503604 12.6953876-5.24565289 4.7610125.00938316 9.3221317 1.91509067 12.6746124 5.29565289zm-7.71 6.7c0 6.68-9.9 6.68-9.9 0s9.9-6.68 9.9 0zm-25-9c4.0222577 3.03627604 8.5433633 5.3475897 13.36 6.83-.3133078 1.0603487-.3917952 2.1762343-.23 3.27-6.13-1.63-11.13-5.39-13.13-10.1zm13.82 12.33c1.1548132 2.3361185 3.5761135 3.7740105 6.18 3.67 2.6143128.1025824 5.0424146-1.348787 6.19-3.7 3.7008137-.8135299 7.1745628-2.4393948 10.17-4.76.9306126 2.0090562 1.4864013 4.1712098 1.64 6.38-18.75 6.41-17.82 6.19-18.28 6l-17.72-6.01c.1330672-2.1720111.6652894-4.3008998 1.57-6.28 3.0220683 2.3136882 6.5247691 3.9198046 10.25 4.7zm-19.04.67c8 1.79 10.74 7.35 8.84 14.86-3.2637449-3.8331736-7.20207891-7.0360356-11.62-9.45 3-5.73 2.75-5.3 2.78-5.41zm1.49 10.6c2.47804336 1.8840822 4.6971281 4.0863557 6.6 6.55l-2.21 5.63-8.66-6.32z"/><circle id="Oval" cx="51" cy="25.01" r="1"/><circle id="Oval" cx="52" cy="35.01" r="1"/><circle id="Oval" cx="54" cy="44.01" r="1"/><circle id="Oval" cx="8" cy="44.01" r="1"/><circle id="Oval" cx="11" cy="25.01" r="1"/><circle id="Oval" cx="10" cy="35.01" r="1"/></g></g></svg>